<svg width="163" height="55" viewBox="0 0 163 55" fill="none" xmlns="http://www.w3.org/2000/svg">
<path d="M2.74286 42.6615V24.5077L16.4571 17.1526M16.4571 17.1526L16.5122 17.123M16.4571 17.1526C16.4571 31.1999 16.4571 34.042 16.4571 48.0894M16.4571 17.1526V8.8418L31.6952 1.12305M31.6952 1.12305L47.2381 9.12305V17.123M31.6952 1.12305V53.123H36.5714V12.2M47.2381 17.123V47.2769H62.781M47.2381 17.123L61.2571 24.5077V42.6615M64 53.123H47.2381H42.0571V47.2769V15.5846M26.5143 12.2V53.123H0M1.21905 47.2769H21.6381M21.6381 48.0894V15.5846" stroke="#575757" stroke-width="2"/>
<path d="M80.218 26.039C84.82 26.039 88.642 29.055 89.214 34.099H87.342C86.77 30.017 83.728 27.781 80.218 27.781C75.876 27.781 72.886 31.187 72.886 35.737C72.886 40.313 75.902 43.849 80.114 43.849C83.728 43.849 86.744 41.223 87.316 37.531H89.136C88.564 41.977 84.872 45.591 80.062 45.591C74.784 45.591 70.936 41.249 70.936 35.763C70.936 30.329 74.706 26.039 80.218 26.039ZM98.2746 45.591C92.9186 45.591 89.1746 41.327 89.1746 35.685C89.1746 29.705 93.4126 26.039 98.5346 26.039C103.761 26.039 107.453 29.887 107.453 35.529C107.453 41.249 103.657 45.591 98.2746 45.591ZM98.2746 43.849C102.487 43.849 105.555 40.339 105.555 35.659C105.555 31.083 102.643 27.781 98.4306 27.781C94.2966 27.781 91.1246 30.953 91.1246 35.763C91.1246 40.443 94.1406 43.849 98.2746 43.849ZM122.645 45.123H120.721V37.011H109.515V45.123H107.565V26.559H109.515V35.269H120.721V26.559H122.645V45.123ZM138.295 45.123L136.709 41.561H125.763L124.125 45.123H122.019L130.911 26.559H132.003L140.479 45.123H138.295ZM131.301 29.367L126.465 40.001H136.033L131.301 29.367ZM143.133 45.123H141.209V28.301H134.839V26.559H149.529V28.301H143.133V45.123ZM160.162 45.123L158.576 41.561H147.63L145.992 45.123H143.886L152.778 26.559H153.87L162.346 45.123H160.162ZM153.168 29.367L148.332 40.001H157.9L153.168 29.367Z" fill="#575757"/>
</svg>
