<svg width="27" height="27" viewBox="0 0 27 27" fill="none" xmlns="http://www.w3.org/2000/svg">
<path d="M10.3893 3.26291C10.0607 2.29063 9.08641 1.5701 7.92916 1.44353L4.03664 1.01783C2.55587 0.85589 1.24245 1.75807 1.10299 3.03321C-0.0823738 13.8719 9.16038 23.7746 21.7469 25.1511C23.2277 25.313 24.5409 24.4105 24.6803 23.1354L25.0476 19.7829C25.1566 18.7863 24.5502 17.8133 23.5162 17.3257L19.926 15.6331C18.9972 15.1951 17.8819 15.2245 17.0206 15.7103L15.9822 16.2965C14.7694 16.9804 13.1219 16.7353 12.1844 15.7308L9.72871 13.0975C8.79115 12.093 8.87036 10.661 9.91333 9.79512L10.8069 9.05384C11.5476 8.43894 11.8264 7.51153 11.5312 6.63817L10.3893 3.26291Z" stroke="#5D5D5D" stroke-width="2" stroke-linecap="round" stroke-linejoin="round"/>
</svg>
