<svg width="48" height="44" viewBox="0 0 48 44" fill="none" xmlns="http://www.w3.org/2000/svg">
<path d="M43.9286 5.34449C37.5962 7.9227 10.445 18.9802 2.94288 21.9941C-2.08851 23.9245 0.856656 25.7342 0.856656 25.7342C0.856656 25.7342 5.15137 27.1818 8.8327 28.2677C12.514 29.3536 14.4775 28.147 14.4775 28.147L31.7796 16.6851C37.915 12.5833 36.4426 15.9613 34.9703 17.4089C31.7796 20.546 26.5032 25.4923 22.0857 29.4739C20.1222 31.1629 21.104 32.6109 21.9629 33.3347C25.1536 35.9889 33.8658 41.4181 34.3569 41.7802C36.9494 43.5845 42.0485 46.182 42.8241 40.6943L45.892 21.7526C46.8737 15.3583 47.8555 9.44627 47.9782 7.75727C48.3461 3.65548 43.9286 5.34449 43.9286 5.34449Z" fill="#575757"/>
</svg>
